<svg width="69" height="21" viewBox="0 0 69 21" fill="none" xmlns="http://www.w3.org/2000/svg">
<g clip-path="url(#clip0_3314_23904)">
<path d="M13.4838 9.80486C14.554 9.00579 15.4012 7.77739 15.3907 5.94146V5.89047C15.3955 4.33711 14.7532 3.00483 13.6091 2.1076C12.4674 1.20655 10.8602 0.728149 8.92281 0.728149H0V19.8784H9.13199C11.251 19.8774 13.0473 19.4538 14.3491 18.5471C15.6547 17.6427 16.4171 16.2185 16.4085 14.4297V14.3773C16.4328 12.0668 15.253 10.6592 13.4838 9.80486ZM10.5243 6.61999C10.5124 7.17939 10.3308 7.47243 9.94536 7.7264C9.55559 7.97418 8.90327 8.11951 8.06083 8.11808H4.7878V5.12332H8.32147C9.11436 5.12189 9.68472 5.28724 10.0245 5.53168C10.3594 5.77993 10.5167 6.07917 10.5243 6.56757V6.61999ZM4.78875 12.3312H9.00095C9.98205 12.3298 10.6391 12.518 11.0122 12.7834C11.3815 13.0517 11.5345 13.3724 11.5426 13.8813V13.9332C11.5326 14.4988 11.352 14.8119 10.9794 15.0725C10.6015 15.3284 9.97014 15.4847 9.13199 15.4823H4.78875V12.3312Z" fill="white"/>
<path d="M29.4145 9.80486C30.4851 9.00579 31.3319 7.77739 31.3209 5.94146V5.89047C31.3257 4.33711 30.6834 3.00483 29.5398 2.1076C28.3981 1.20655 26.7909 0.728149 24.853 0.728149H15.9307V19.8784H25.0622C27.1821 19.8774 28.9785 19.4538 30.2803 18.5471C31.5849 17.6427 32.3482 16.2185 32.3382 14.4297V14.3773C32.364 12.0668 31.1827 10.6592 29.4145 9.80486ZM26.4545 6.61999C26.4435 7.17939 26.262 7.47243 25.8755 7.7264C25.4848 7.97418 24.8339 8.11951 23.992 8.11665H20.718V5.12332H24.2531C25.0445 5.12189 25.6163 5.28724 25.9546 5.53168C26.2896 5.77993 26.4459 6.07917 26.4545 6.56757V6.61999ZM27.4732 13.8813V13.9332C27.4632 14.4988 27.2826 14.8119 26.9086 15.0725C26.5312 15.3284 25.9003 15.4847 25.0617 15.4823H20.7175V12.3312H24.9316C25.9118 12.3298 26.5693 12.518 26.9424 12.7834C27.3107 13.0517 27.4651 13.3724 27.4732 13.8813Z" fill="white"/>
<path d="M46.7365 3.46177C44.9406 1.7502 42.3966 0.726697 39.4242 0.727173H31.8604V19.8784H39.4294C42.4009 19.8784 44.9434 18.8396 46.7379 17.1152C48.5347 15.3932 49.5764 12.9878 49.5754 10.3023V10.2508C49.5764 7.56628 48.5343 5.17285 46.7365 3.46177ZM44.4998 10.3028V10.3547C44.4755 13.3824 42.51 15.3522 39.4247 15.3774H36.753V5.22765H39.4242C42.5033 5.25052 44.4765 7.27276 44.4998 10.3028Z" fill="white"/>
<path d="M66.142 3.2916C64.3432 1.50952 61.8054 0.412634 58.8755 0.414064C55.9469 0.412634 53.3948 1.52286 51.5837 3.31829C49.7725 5.11181 48.6995 7.58957 48.6995 10.3032V10.3551C48.6985 13.0673 49.7587 15.5332 51.5575 17.3143C53.3553 19.0959 55.895 20.1928 58.8235 20.1919H58.8278C61.7563 20.1919 64.3065 19.0816 66.1158 17.2881C67.9269 15.4936 69.0009 13.0164 69 10.3027V10.2517C69.0009 7.53906 67.9407 5.07369 66.142 3.2916ZM53.7746 10.2513C53.7889 7.32274 55.8335 4.99936 58.824 4.99269C61.8111 4.9965 63.9153 7.37992 63.9253 10.3022V10.3542C63.9125 13.2818 61.8669 15.6051 58.8755 15.6113C55.8893 15.6075 53.7846 13.2246 53.7746 10.3018V10.2513Z" fill="white"/>
</g>
<defs>
<clipPath id="clip0_3314_23904">
<rect width="69" height="19.7778" fill="white" transform="translate(0 0.414185)"/>
</clipPath>
</defs>
</svg>
