<svg width="117" height="33" viewBox="0 0 117 33" fill="none" xmlns="http://www.w3.org/2000/svg">
<g clip-path="url(#clip0_1263_7559)">
<g clip-path="url(#clip1_1263_7559)">
<path d="M24.7606 6.70743C22.8685 5.82367 20.8454 5.18139 18.7303 4.81567C18.4705 5.28451 18.167 5.91511 17.9578 6.41675C15.7093 6.07919 13.4816 6.07919 11.2745 6.41675C11.0653 5.91511 10.7549 5.28451 10.4928 4.81567C8.3754 5.18139 6.34993 5.82603 4.45782 6.71211C0.641408 12.4694 -0.393158 18.0836 0.124126 23.6181C2.65537 25.5051 5.10845 26.6515 7.52014 27.4016C8.11559 26.5835 8.64666 25.7138 9.10416 24.7972C8.23283 24.4667 7.39829 24.0588 6.60974 23.5853C6.81894 23.4306 7.02357 23.2688 7.22126 23.1024C12.0308 25.3481 17.2566 25.3481 22.0087 23.1024C22.2087 23.2688 22.4133 23.4306 22.6202 23.5853C21.8294 24.0611 20.9925 24.469 20.1212 24.7996C20.5787 25.7138 21.1075 26.5858 21.7052 27.4039C24.1192 26.6538 26.5746 25.5075 29.1058 23.6181C29.7128 17.2022 28.069 11.6395 24.7606 6.70743ZM9.7594 20.2144C8.31562 20.2144 7.13159 18.8689 7.13159 17.2303C7.13159 15.5918 8.29033 14.2439 9.7594 14.2439C11.2285 14.2439 12.4125 15.5894 12.3872 17.2303C12.3895 18.8689 11.2285 20.2144 9.7594 20.2144ZM19.4706 20.2144C18.0268 20.2144 16.8428 18.8689 16.8428 17.2303C16.8428 15.5918 18.0015 14.2439 19.4706 14.2439C20.9396 14.2439 22.1237 15.5894 22.0984 17.2303C22.0984 18.8689 20.9396 20.2144 19.4706 20.2144Z" fill="white"/>
<path d="M39.2788 10.5781H45.555C47.068 10.5781 48.3462 10.8196 49.3948 11.3001C50.4406 11.7806 51.2247 12.4511 51.7444 13.309C52.2637 14.167 52.5257 15.1492 52.5257 16.2556C52.5257 17.3386 52.2545 18.3208 51.7119 19.1999C51.1694 20.0813 50.344 20.7775 49.2337 21.2909C48.1234 21.8042 46.7483 22.0621 45.1047 22.0621H39.2788V10.5781ZM45.0401 19.1436C46.0587 19.1436 46.8428 18.8834 47.3898 18.3654C47.9371 17.845 48.2108 17.137 48.2108 16.2392C48.2108 15.407 47.9667 14.7436 47.4795 14.2467C46.9923 13.7497 46.2542 13.4989 45.2677 13.4989H43.3044V19.1436H45.0401Z" fill="white"/>
<path d="M61.9224 22.0481C61.0533 21.8184 60.2691 21.4855 59.5728 21.0471V18.3233C60.0993 18.7381 60.8049 19.0804 61.69 19.35C62.5751 19.6172 63.4305 19.7508 64.258 19.7508C64.6442 19.7508 64.9363 19.6993 65.1339 19.5961C65.3318 19.493 65.4308 19.3687 65.4308 19.2257C65.4308 19.0617 65.3779 18.9257 65.2697 18.8155C65.1615 18.7053 64.9523 18.6139 64.6422 18.5365L62.7109 18.0935C61.605 17.831 60.8209 17.4676 60.3545 17.0011C59.8877 16.537 59.6553 15.9275 59.6553 15.1727C59.6553 14.5374 59.8576 13.9866 60.2671 13.5154C60.6738 13.0442 61.2532 12.6809 62.0049 12.4253C62.757 12.1675 63.6349 12.0386 64.6442 12.0386C65.5454 12.0386 66.3708 12.137 67.1229 12.3339C67.8745 12.5309 68.4952 12.7817 68.9897 13.0887V15.665C68.4836 15.3579 67.9042 15.1165 67.2423 14.9336C66.5823 14.7531 65.9044 14.664 65.2052 14.664C64.1959 14.664 63.6926 14.8398 63.6926 15.1891C63.6926 15.3532 63.7707 15.4751 63.927 15.5571C64.0833 15.6392 64.3706 15.7236 64.7869 15.8127L66.396 16.108C67.447 16.2932 68.2308 16.6191 68.7456 17.0832C69.2609 17.5473 69.5182 18.2342 69.5182 19.1437C69.5182 20.1399 69.093 20.9299 68.24 21.516C67.3869 22.102 66.1776 22.395 64.6098 22.395C63.6878 22.3927 62.7915 22.2778 61.9224 22.0481Z" fill="white"/>
<path d="M73.3165 21.7034C72.3949 21.244 71.6981 20.6204 71.2337 19.8328C70.7693 19.0452 70.5349 18.1591 70.5349 17.1745C70.5349 16.19 70.7761 15.3086 71.259 14.5327C71.7418 13.7568 72.4498 13.1473 73.3834 12.7042C74.3166 12.2612 75.4317 12.0408 76.7307 12.0408C78.3399 12.0408 79.6757 12.3854 80.738 13.0746V16.0775C80.3633 15.8149 79.9262 15.6016 79.4273 15.4375C78.9285 15.2734 78.3951 15.1914 77.825 15.1914C76.8273 15.1914 76.0479 15.3766 75.4846 15.7493C74.9212 16.122 74.6387 16.6072 74.6387 17.2097C74.6387 17.8004 74.912 18.2833 75.4593 18.6631C76.0067 19.0405 76.7996 19.2304 77.841 19.2304C78.3767 19.2304 78.9056 19.1506 79.4273 18.9936C79.947 18.8342 80.3954 18.6396 80.77 18.4099V21.3143C79.5908 22.0363 78.2229 22.3973 76.6662 22.3973C75.356 22.3926 74.2384 22.1629 73.3165 21.7034Z" fill="white"/>
<path d="M84.7522 21.7035C83.8234 21.244 83.1154 20.6158 82.6278 19.8164C82.1406 19.0171 81.8945 18.1263 81.8945 17.1418C81.8945 16.1572 82.1381 15.2782 82.6278 14.507C83.1174 13.7357 83.821 13.1309 84.7454 12.6926C85.667 12.2542 86.7685 12.0362 88.0442 12.0362C89.3204 12.0362 90.4215 12.2542 91.3435 12.6926C92.2655 13.1309 92.9691 13.731 93.4519 14.4976C93.9347 15.2641 94.1759 16.1432 94.1759 17.1394C94.1759 18.124 93.9347 19.0148 93.4519 19.8141C92.9691 20.6134 92.2631 21.2417 91.3343 21.7012C90.4055 22.1606 89.3088 22.3903 88.0422 22.3903C86.7753 22.3903 85.6786 22.1629 84.7522 21.7035ZM89.6422 18.792C90.0332 18.3936 90.2308 17.8661 90.2308 17.2098C90.2308 16.5534 90.0353 16.0306 89.6422 15.6438C89.2515 15.2547 88.7178 15.0602 88.0422 15.0602C87.3547 15.0602 86.8165 15.2547 86.4235 15.6438C86.0328 16.033 85.8373 16.5534 85.8373 17.2098C85.8373 17.8661 86.0328 18.3936 86.4235 18.792C86.8145 19.1906 87.3547 19.3922 88.0422 19.3922C88.7178 19.3898 89.2515 19.1906 89.6422 18.792Z" fill="white"/>
<path d="M103.846 12.6457V16.1901C103.437 15.9158 102.908 15.7798 102.253 15.7798C101.395 15.7798 100.733 16.0447 100.273 16.5745C99.8109 17.1043 99.5809 17.9294 99.5809 19.0452V22.0645H95.6382V12.4652H99.5008V15.5173C99.7144 14.4015 100.062 13.5787 100.54 13.0465C101.016 12.5168 101.632 12.2519 102.381 12.2519C102.949 12.2519 103.437 12.3832 103.846 12.6457Z" fill="white"/>
<path d="M116.946 10.2499V22.0645H113.002V19.9149C112.669 20.7236 112.163 21.3401 111.483 21.7621C110.802 22.1817 109.961 22.3927 108.963 22.3927C108.071 22.3927 107.294 22.1723 106.63 21.7293C105.965 21.2862 105.453 20.6791 105.092 19.9079C104.733 19.1366 104.551 18.2646 104.551 17.2895C104.54 16.2838 104.731 15.3813 105.124 14.5819C105.515 13.7826 106.069 13.1591 106.781 12.7113C107.494 12.2636 108.308 12.0385 109.221 12.0385C111.099 12.0385 112.359 12.8707 113.002 14.5327V10.2499H116.946ZM112.414 18.7264C112.817 18.3279 113.017 17.8099 113.017 17.1769C113.017 16.5651 112.821 16.0658 112.43 15.6837C112.039 15.3016 111.504 15.1094 110.83 15.1094C110.166 15.1094 109.635 15.3039 109.237 15.6931C108.839 16.0822 108.641 16.5862 108.641 17.2097C108.641 17.8333 108.839 18.342 109.237 18.7358C109.635 19.1296 110.159 19.3265 110.814 19.3265C111.478 19.3242 112.012 19.1249 112.414 18.7264Z" fill="white"/>
<path d="M55.8485 13.4871C56.9339 13.4871 57.8142 12.6811 57.8142 11.6868C57.8142 10.6925 56.9339 9.88654 55.8485 9.88654C54.7626 9.88654 53.8827 10.6925 53.8827 11.6868C53.8827 12.6811 54.7626 13.4871 55.8485 13.4871Z" fill="white"/>
<path d="M53.881 14.7273C55.0854 15.2571 56.58 15.2805 57.8121 14.7273V22.1161H53.881V14.7273Z" fill="white"/>
</g>
</g>
<defs>
<clipPath id="clip0_1263_7559">
<rect width="117" height="32" fill="white" transform="translate(0 0.109863)"/>
</clipPath>
<clipPath id="clip1_1263_7559">
<rect width="117" height="32" fill="white" transform="translate(0 0.109863)"/>
</clipPath>
</defs>
</svg>
