<svg width="97" height="20" viewBox="0 0 97 20" fill="none" xmlns="http://www.w3.org/2000/svg">
<g clip-path="url(#clip0_1263_7539)">
<path d="M11.252 3.59956L5.626 7.18856L11.252 10.7776L5.626 14.3666L0 10.7582L5.626 7.16916L0 3.59956L5.626 0.0105591L11.252 3.59956ZM5.5969 15.5209L11.2229 11.9319L16.8489 15.5209L11.2229 19.1099L5.5969 15.5209ZM11.252 10.7582L16.878 7.16916L11.252 3.59956L16.8489 0.0105591L22.4749 3.59956L16.8489 7.18856L22.4749 10.7776L16.8489 14.3666L11.252 10.7582Z" fill="white"/>
<path d="M26.8884 3.59934H31.4377C34.338 3.59934 36.7339 5.27744 36.7339 9.10894V9.91404C36.7339 13.7746 34.4932 15.5109 31.525 15.5109H26.8884V3.59934ZM29.4298 5.76244V13.3381H31.3795C33.0285 13.3381 34.1343 12.2614 34.1343 9.86554V9.23504C34.1343 6.83914 32.9703 5.76244 31.2922 5.76244H29.4298ZM38.0822 5.87884H40.1192L40.449 8.11954C40.837 6.59664 41.8264 5.78184 43.6209 5.78184H44.2514V8.35234H43.2038C41.1377 8.35234 40.6333 9.07014 40.6333 11.1071V15.54H38.121V5.87884H38.0822ZM44.7558 10.9034V10.6318C44.7558 7.40174 46.8219 5.63634 49.6349 5.63634C52.5061 5.63634 54.514 7.40174 54.514 10.6318V10.9034C54.514 14.0753 52.5643 15.7825 49.6349 15.7825C46.5212 15.7534 44.7558 14.085 44.7558 10.9034ZM51.9435 10.8743V10.6318C51.9435 8.83734 51.0414 7.76064 49.6058 7.76064C48.1993 7.76064 47.2681 8.75004 47.2681 10.6318V10.8743C47.2681 12.6106 48.1702 13.6 49.6058 13.6C51.0414 13.5709 51.9435 12.6106 51.9435 10.8743ZM55.8332 5.87884H57.9284L58.1709 7.70244C58.6753 6.48024 59.752 5.63634 61.3428 5.63634C63.7969 5.63634 65.4168 7.40174 65.4168 10.6706V10.9422C65.4168 14.1141 63.6223 15.7922 61.3428 15.7922C59.8199 15.7922 58.7723 15.1035 58.2582 13.9977V18.8768H55.8041L55.8332 5.87884ZM62.8657 10.8743V10.6609C62.8657 8.74034 61.8763 7.78974 60.5571 7.78974C59.1506 7.78974 58.2194 8.86644 58.2194 10.6609V10.8452C58.2194 12.5524 59.1215 13.6291 60.528 13.6291C61.9733 13.6 62.8657 12.6785 62.8657 10.8743ZM69.1319 13.7552L68.9185 15.5206H66.7651V2.64874H69.2192V7.58604C69.7624 6.32504 70.8391 5.63634 72.362 5.63634C74.6706 5.66544 76.3778 7.25624 76.3778 10.4572V10.7579C76.3778 13.9589 74.7579 15.7922 72.3038 15.7922C70.6839 15.7534 69.6363 15.0065 69.1319 13.7552ZM73.7976 10.7579V10.5154C73.7976 8.75004 72.8373 7.76064 71.489 7.76064C70.1116 7.76064 69.1513 8.86644 69.1513 10.5445V10.7579C69.1513 12.5524 70.0825 13.6 71.4599 13.6C72.9343 13.6 73.7976 12.6785 73.7976 10.7579ZM77.4545 10.9034V10.6318C77.4545 7.40174 79.5206 5.63634 82.3336 5.63634C85.2048 5.63634 87.2127 7.40174 87.2127 10.6318V10.9034C87.2127 14.0753 85.2339 15.7825 82.3336 15.7825C79.2199 15.7534 77.4545 14.085 77.4545 10.9034ZM84.6616 10.8743V10.6318C84.6616 8.83734 83.7595 7.76064 82.3239 7.76064C80.9174 7.76064 79.9862 8.75004 79.9862 10.6318V10.8743C79.9862 12.6106 80.8883 13.6 82.3239 13.6C83.7692 13.5709 84.6616 12.6106 84.6616 10.8743ZM90.501 10.5154L87.1157 5.87884H90.016L91.9657 8.77914L93.9445 5.87884H96.8157L93.3819 10.4863L97 15.5206H94.1579L91.9463 12.3196L89.7929 15.5206H86.8247L90.501 10.5154Z" fill="white"/>
</g>
<defs>
<clipPath id="clip0_1263_7539">
<rect width="97" height="19.0993" fill="white" transform="translate(0 0.0105591)"/>
</clipPath>
</defs>
</svg>
