<svg width="109" height="25" viewBox="0 0 109 25" fill="none" xmlns="http://www.w3.org/2000/svg">
<g clip-path="url(#clip0_1263_7527)">
<path d="M9.22023 9.1952C9.22023 10.263 8.76846 11.2076 8.0292 11.9469C7.2078 12.7683 6.01677 12.9736 6.01677 13.6718C6.01677 14.6164 7.53636 14.329 8.99435 15.7869C9.95949 16.7521 10.555 18.0253 10.555 19.5038C10.555 22.4198 8.21402 24.7402 5.27751 24.7402C2.34099 24.7402 0 22.4218 0 19.5058C0 18.0273 0.595516 16.7541 1.56066 15.789C3.01865 14.331 4.53824 14.6185 4.53824 13.6739C4.53824 12.9757 3.34721 12.7703 2.52581 11.9489C1.78655 11.2097 1.33478 10.2651 1.33478 9.15618C1.33478 7.02054 3.08026 5.29559 5.2159 5.29559C5.6266 5.29559 5.99623 5.3572 6.30426 5.3572C6.8587 5.3572 7.14619 5.11078 7.14619 4.72061C7.14619 4.49473 7.04352 4.20724 7.04352 3.89921C7.04352 3.20102 7.63904 2.62604 8.35776 2.62604C9.07649 2.62604 9.65147 3.22155 9.65147 3.94028C9.65147 4.70008 9.05595 5.04917 8.60418 5.21345C8.23455 5.33666 7.94706 5.50094 7.94706 5.87057C7.94706 6.56671 9.22023 7.24437 9.22023 9.1952ZM8.80953 19.5058C8.80953 17.4729 7.31047 15.8301 5.27751 15.8301C3.24454 15.8301 1.74548 17.4729 1.74548 19.5058C1.74548 21.5183 3.24454 23.1816 5.27751 23.1816C7.31047 23.1816 8.80953 21.5162 8.80953 19.5058ZM7.59797 9.15413C7.59797 7.86042 6.55068 6.7926 5.27751 6.7926C4.00433 6.7926 2.95705 7.86042 2.95705 9.15413C2.95705 10.4478 4.00433 11.5157 5.27751 11.5157C6.55068 11.5157 7.59797 10.4478 7.59797 9.15413Z" fill="white"/>
<path d="M16.6128 5.49898C17.2699 5.49898 17.7628 5.99182 17.7628 6.60788C17.7628 7.22393 17.2905 7.71677 16.6334 7.71677C15.9557 7.71677 15.5861 7.28553 14.9084 7.28553C14.2513 7.28553 13.7379 7.75784 13.7379 8.5587V15.0272C13.7379 15.5201 13.3477 15.9102 12.8549 15.9102C12.3826 15.9102 11.9924 15.5201 11.9924 15.0272V6.32038C11.9924 5.82754 12.3826 5.43738 12.8549 5.43738C13.7379 5.43738 13.5736 6.27931 14.4566 6.27931C15.2986 6.27931 15.6066 5.49898 16.6128 5.49898Z" fill="white"/>
<path d="M18.5226 10.6736C18.5226 7.57285 20.6582 5.33453 23.5947 5.33453C26.2848 5.33453 28.4205 7.3059 28.4205 9.99599C28.4205 10.6326 28.0098 11.0638 27.4143 11.0638H20.7404C20.4529 11.0638 20.3502 11.1665 20.3502 11.3924C20.3502 11.9057 20.7609 12.8504 21.377 13.4664C21.993 14.0825 22.8349 14.4521 24.026 14.4521C24.909 14.4521 25.6893 14.1235 26.2848 13.6923C26.4696 13.5485 26.675 13.4664 26.8803 13.4664C27.3116 13.4664 27.6607 13.8566 27.6607 14.2673C27.6607 14.5137 27.5785 14.719 27.3732 14.9039C26.5107 15.6226 25.2991 16.0128 23.9849 16.0128C20.802 16.0128 18.5226 13.7128 18.5226 10.6736ZM25.792 7.7166C25.217 7.14162 24.4777 6.85413 23.5947 6.85413C22.7117 6.85413 21.8903 7.20322 21.2948 7.79874C20.8225 8.27104 20.4939 8.8871 20.4939 9.2978C20.4939 9.50315 20.6172 9.58529 20.8841 9.58529H26.2232C26.4696 9.58529 26.5929 9.50315 26.5929 9.2978C26.5929 8.80496 26.2027 8.1273 25.792 7.7166Z" fill="white"/>
<path d="M30.1865 10.6736C30.1865 7.57285 32.3222 5.33453 35.2587 5.33453C37.9488 5.33453 40.0844 7.3059 40.0844 9.99599C40.0844 10.6326 39.6737 11.0638 39.0782 11.0638H32.4043C32.1168 11.0638 32.0141 11.1665 32.0141 11.3924C32.0141 11.9057 32.4248 12.8504 33.0409 13.4664C33.6569 14.0825 34.4989 14.4521 35.6899 14.4521C36.5729 14.4521 37.3533 14.1235 37.9488 13.6923C38.1336 13.5485 38.3389 13.4664 38.5443 13.4664C38.9755 13.4664 39.3246 13.8566 39.3246 14.2673C39.3246 14.5137 39.2425 14.719 39.0371 14.9039C38.1747 15.6226 36.9631 16.0128 35.6488 16.0128C32.4659 16.0128 30.1865 13.7128 30.1865 10.6736ZM37.4559 7.7166C36.8809 7.14162 36.1417 6.85413 35.2587 6.85413C34.3757 6.85413 33.5543 7.20322 32.9588 7.79874C32.4864 8.27104 32.1579 8.8871 32.1579 9.2978C32.1579 9.50315 32.2811 9.58529 32.5481 9.58529H37.8872C38.1336 9.58529 38.2568 9.50315 38.2568 9.2978C38.2568 8.80496 37.8666 8.1273 37.4559 7.7166Z" fill="white"/>
<path d="M50.3725 15.9101C49.8797 15.9101 49.4895 15.5199 49.4895 15.0271V9.44154C49.4895 7.98355 48.3396 6.87466 46.8611 6.87466C45.362 6.87466 44.212 8.00409 44.212 9.44154V15.0271C44.212 15.5199 43.8219 15.9101 43.329 15.9101C42.8567 15.9101 42.4666 15.5199 42.4666 15.0271V6.29968C42.4666 5.82737 42.8567 5.43721 43.3085 5.43721C44.171 5.43721 44.1299 6.21754 44.5817 6.21754C45.0334 6.21754 45.6495 5.33453 47.2512 5.33453C49.4895 5.33453 51.235 7.20322 51.235 9.44154V15.0271C51.235 15.5199 50.8448 15.9101 50.3725 15.9101Z" fill="white"/>
<path d="M62.1595 15.9098C61.6667 15.9098 61.2765 15.5196 61.2765 15.0268V9.44126C61.2765 7.98327 60.1266 6.87437 58.648 6.87437C57.149 6.87437 55.999 8.0038 55.999 9.44126V15.0268C55.999 15.5196 55.6088 15.9098 55.116 15.9098C54.6437 15.9098 54.2535 15.5196 54.2535 15.0268V1.18617C54.2535 0.693327 54.6437 0.303162 55.116 0.303162C55.6088 0.303162 55.999 0.693327 55.999 1.18617V5.72441C55.999 5.97083 56.1017 6.11458 56.3686 6.11458C56.8204 6.11458 57.4365 5.33425 59.0382 5.33425C61.2765 5.33425 63.022 7.20294 63.022 9.44126V15.0268C63.022 15.5196 62.6318 15.9098 62.1595 15.9098Z" fill="white"/>
<path d="M65.4226 10.6736C65.4226 7.69606 67.8047 5.33453 70.8028 5.33453C73.8009 5.33453 76.183 7.69606 76.183 10.6736C76.183 13.6512 73.8009 16.0128 70.8028 16.0128C67.8067 16.0128 65.4226 13.6512 65.4226 10.6736ZM74.4395 10.6736C74.4395 8.59961 72.8994 6.8952 70.8048 6.8952C68.7308 6.8952 67.1907 8.59961 67.1907 10.6736C67.1907 12.7477 68.7308 14.4521 70.8048 14.4521C72.8994 14.4521 74.4395 12.7477 74.4395 10.6736Z" fill="white"/>
<path d="M79.4479 5.43738C79.9408 5.43738 80.3309 5.82754 80.3309 6.32038V11.9059C80.3309 13.3639 81.4809 14.4728 82.9594 14.4728C84.4585 14.4728 85.6084 13.3434 85.6084 11.9059V6.32038C85.6084 5.82754 85.9986 5.43738 86.4914 5.43738C86.9637 5.43738 87.3539 5.82754 87.3539 6.32038V15.0478C87.3539 15.5201 86.9637 15.9102 86.512 15.9102C85.6495 15.9102 85.6906 15.1299 85.2388 15.1299C84.787 15.1299 84.171 16.0129 82.5692 16.0129C80.3309 16.0129 78.5854 14.1442 78.5854 11.9059V6.32038C78.5875 5.82754 78.9756 5.43738 79.4479 5.43738Z" fill="white"/>
<path d="M90.4547 15.253C90.0646 15.0065 89.7976 14.7601 89.7976 14.2878C89.7976 13.836 90.1467 13.4869 90.5779 13.4869C91.0913 13.4869 91.3172 13.795 91.7484 14.0209C92.2823 14.3289 92.8984 14.4932 93.6582 14.4932C95.0546 14.4932 95.7528 13.8566 95.7528 13.0762C95.7528 11.9674 94.726 11.762 93.3296 11.3924C91.6047 10.9406 89.9413 10.4272 89.9413 8.43532C89.9413 6.66931 91.2967 5.33453 93.6993 5.33453C94.6439 5.33453 95.5269 5.58095 96.2251 6.01219C96.4715 6.15594 96.7179 6.46396 96.7179 6.81306C96.7179 7.26483 96.3483 7.65499 95.876 7.65499C95.568 7.65499 95.3215 7.44964 95.0135 7.24429C94.7055 7.03894 94.2537 6.85413 93.6377 6.85413C92.2618 6.85413 91.6663 7.44964 91.6663 8.25051C91.6663 9.2978 92.6725 9.54422 94.11 9.89331C95.7938 10.304 97.4572 10.8379 97.4572 12.8709C97.4572 14.6369 96.1429 16.0128 93.6171 16.0128C92.385 16.0128 91.2761 15.7663 90.4547 15.253Z" fill="white"/>
<path d="M99.1001 10.6736C99.1001 7.57285 101.236 5.33453 104.172 5.33453C106.862 5.33453 108.998 7.3059 108.998 9.99599C108.998 10.6326 108.587 11.0638 107.992 11.0638H101.318C101.03 11.0638 100.928 11.1665 100.928 11.3924C100.928 11.9057 101.338 12.8504 101.954 13.4664C102.571 14.0825 103.412 14.4521 104.603 14.4521C105.486 14.4521 106.267 14.1235 106.862 13.6923C107.047 13.5485 107.253 13.4664 107.458 13.4664C107.889 13.4664 108.238 13.8566 108.238 14.2673C108.238 14.5137 108.156 14.719 107.951 14.9039C107.088 15.6226 105.877 16.0128 104.562 16.0128C101.382 16.0128 99.1001 13.7128 99.1001 10.6736ZM106.372 7.7166C105.797 7.14162 105.057 6.85413 104.174 6.85413C103.291 6.85413 102.47 7.20322 101.874 7.79874C101.402 8.27104 101.074 8.8871 101.074 9.2978C101.074 9.50315 101.197 9.58529 101.464 9.58529H106.803C107.049 9.58529 107.172 9.50315 107.172 9.2978C107.172 8.80496 106.782 8.1273 106.372 7.7166Z" fill="white"/>
</g>
<defs>
<clipPath id="clip0_1263_7527">
<rect width="108.998" height="24.437" fill="white" transform="translate(0 0.303345)"/>
</clipPath>
</defs>
</svg>
