<svg width="109" height="21" viewBox="0 0 109 21" fill="none" xmlns="http://www.w3.org/2000/svg">
<g clip-path="url(#clip0_1263_7548)">
<path d="M2.25507 16.1538C1.85431 16.1546 1.4605 16.0491 1.11387 15.848C0.767246 15.6468 0.480225 15.3573 0.282131 15.0089C0.08707 14.663 -0.0102122 14.2705 0.000705489 13.8735C0.0116231 13.4765 0.130329 13.09 0.344108 12.7553L4.40705 6.375C4.615 6.03209 4.91024 5.75053 5.26261 5.55906C5.61498 5.3676 6.01185 5.2731 6.4127 5.28521C6.81324 5.29481 7.20403 5.41066 7.5451 5.6209C7.88616 5.83113 8.16524 6.12821 8.35379 6.48174C8.73254 7.19793 8.68519 8.0596 8.23155 8.73189L4.17119 15.1122C3.96529 15.4331 3.68172 15.6967 3.34676 15.8788C3.01181 16.0609 2.63631 16.1555 2.25507 16.1538V16.1538Z" fill="white"/>
<path d="M9.22374 16.1536C8.40427 16.1536 7.65021 15.7155 7.25425 15.0113C7.05962 14.6663 6.96257 14.2749 6.97349 13.8789C6.9844 13.483 7.10289 13.0975 7.31623 12.7638L11.3714 6.39808C11.5763 6.05035 11.8705 5.76377 12.2235 5.56806C12.5764 5.37235 12.9753 5.27464 13.3788 5.28506C14.2052 5.30313 14.954 5.76539 15.3328 6.48846C15.709 7.21154 15.6539 8.07838 15.1865 8.74895L11.1321 15.1146C10.9269 15.4341 10.6444 15.6968 10.3109 15.8784C9.97738 16.0599 9.60349 16.1546 9.22374 16.1536V16.1536Z" fill="white"/>
<path d="M16.037 16.2073C17.1923 16.2073 18.1288 15.2904 18.1288 14.1594C18.1288 13.0284 17.1923 12.1116 16.037 12.1116C14.8818 12.1116 13.9453 13.0284 13.9453 14.1594C13.9453 15.2904 14.8818 16.2073 16.037 16.2073Z" fill="white"/>
<path d="M106.907 12.2298C107.539 12.2298 107.917 12.6792 107.917 13.4152V15.9373H108.775V13.3575C108.775 12.1059 108.185 11.3802 107.077 11.3802C106.643 11.3802 105.954 11.499 105.544 12.297C105.448 12.0616 105.291 11.8565 105.088 11.7034C104.885 11.5503 104.645 11.455 104.393 11.4276C104.234 11.3985 104.072 11.3889 103.911 11.3992C103.558 11.4276 102.929 11.6471 102.694 12.1446V11.4758H101.835V15.9373H102.694V13.5297C102.694 12.5931 103.307 12.2298 103.921 12.2298C104.496 12.2298 104.874 12.6697 104.874 13.4057V15.9373H105.728V13.5297C105.728 12.7842 106.175 12.2212 106.907 12.2298ZM98.6822 15.1919C99.0747 15.2005 99.4534 15.0438 99.728 14.7598C100.003 14.4757 100.15 14.0892 100.135 13.6924C100.135 12.7937 99.4741 12.2298 98.6822 12.2298C97.8894 12.2298 97.2291 12.7937 97.2291 13.6924C97.2136 14.0883 97.36 14.474 97.6337 14.7572C97.9074 15.0412 98.2845 15.1988 98.6753 15.1919H98.6822ZM98.6822 16.0286C97.4271 16.0286 96.3795 15.1015 96.3795 13.6872C96.3795 12.2729 97.4271 11.3751 98.6822 11.3751C99.9372 11.3751 100.993 12.2729 100.993 13.6872C100.993 15.1015 99.9312 16.0329 98.6761 16.0329L98.6822 16.0286ZM91.9594 13.6872L91.9508 13.6924C91.9508 12.278 93.0259 11.3802 94.2895 11.3751C94.607 11.3689 94.9222 11.4295 95.2147 11.5529C95.5073 11.6762 95.7707 11.8597 95.9879 12.0913L95.3371 12.6456C95.1989 12.5099 95.0352 12.4029 94.8553 12.3308C94.6755 12.2587 94.4832 12.2229 94.2895 12.2255C93.4976 12.2255 92.809 12.7894 92.809 13.6872C92.809 14.2941 93.1696 14.8407 93.7231 15.0731C94.2766 15.3055 94.9136 15.1764 95.3371 14.7477L95.9973 15.3021C95.7795 15.536 95.5148 15.7216 95.2206 15.8468C94.9264 15.9719 94.6092 16.0339 94.2895 16.0286C93.0354 16.0286 91.9594 15.1015 91.9594 13.6872ZM89.2109 15.0808C89.2099 15.0028 89.2244 14.9254 89.2534 14.853C89.2824 14.7806 89.3254 14.7146 89.3799 14.6588C89.4345 14.603 89.4994 14.5585 89.5711 14.5278C89.6429 14.4971 89.7199 14.4809 89.7979 14.48C89.8759 14.4809 89.953 14.4971 90.0247 14.5278C90.0964 14.5585 90.1614 14.603 90.2159 14.6588C90.2704 14.7146 90.3134 14.7806 90.3424 14.853C90.3714 14.9254 90.3859 15.0028 90.385 15.0808C90.3773 15.2319 90.3123 15.3743 90.2032 15.4791C90.0941 15.5839 89.9492 15.6431 89.7979 15.6447C89.6467 15.6431 89.5017 15.5839 89.3926 15.4791C89.2835 15.3743 89.2185 15.2319 89.2109 15.0808Z" fill="white"/>
<path fill-rule="evenodd" clip-rule="evenodd" d="M91.5595 5.80389H88.5029L86.3604 11.3277L84.229 5.80389H81.1724L84.8884 14.5325L82.5772 20.3033H85.6115L91.5595 5.80389ZM72.9699 10.6588C72.9699 12.0534 74.1887 12.971 75.3861 12.971C76.5628 12.971 77.7189 12.1171 77.7189 10.658C77.7189 9.19892 76.5628 8.34414 75.3861 8.34414C74.1887 8.34414 72.9699 9.26262 72.9699 10.658V10.6588ZM77.7189 15.5327V14.4283C77.0991 15.3666 75.6529 15.7213 74.9109 15.7213C72.4542 15.7213 69.9967 13.7844 69.9967 10.658C69.9967 7.5324 72.4534 5.59558 74.9109 5.59558C75.5299 5.59558 76.976 5.80217 77.7189 6.88679V5.80734H80.5681V15.5345L77.7189 15.5336V15.5327ZM69.1858 15.5327H66.3366V14.3242C65.8606 15.2194 64.7062 15.7411 63.508 15.7411C61.0298 15.7411 58.8408 13.7621 58.8408 10.6976C58.8408 7.57544 61.0298 5.59386 63.508 5.59386C64.7045 5.59386 65.8623 6.09312 66.3366 6.98923V0.504761H69.1858V15.5327ZM66.2746 10.6365C66.2746 9.17826 65.2219 8.32348 64.0452 8.32348C62.8263 8.32348 61.814 9.24024 61.814 10.6365C61.814 12.0775 62.8263 12.9899 64.0443 12.9899C65.2434 12.9916 66.2746 12.0327 66.2746 10.6365V10.6365ZM51.7961 10.3851C51.7961 8.90624 52.5605 8.40612 53.5719 8.40612C54.542 8.40612 55.2444 9.05172 55.2444 10.3429V15.531H58.1143V9.71885C58.1143 6.94877 56.7508 5.59386 54.5825 5.59386C53.4471 5.59386 52.3117 6.23946 51.7952 7.21906V5.80389H48.9271V15.531H51.7961V10.3851ZM43.0995 15.698C40.3742 15.698 38.1009 13.6984 38.1009 10.6356C38.1009 7.57113 40.3716 5.59127 43.0995 5.59127C45.8273 5.59127 48.1179 7.57113 48.1179 10.6356C48.1179 13.7001 45.8248 15.6989 43.0995 15.6989V15.698ZM43.0995 12.866C44.296 12.866 45.2885 11.9897 45.2885 10.6365C45.2885 9.32374 44.2968 8.42764 43.0995 8.42764C42.8112 8.42312 42.525 8.47735 42.2583 8.58701C41.9916 8.69667 41.7501 8.85947 41.5483 9.06549C41.3454 9.27262 41.1862 9.51843 41.0802 9.7883C40.9742 10.0582 40.9235 10.3466 40.9311 10.6365C40.932 11.9914 41.9228 12.866 43.0995 12.866ZM32.9559 8.40698C33.8021 8.40698 34.5458 9.0741 34.5458 10.3438V15.5327H37.395V10.0081C37.395 7.071 35.967 5.59213 33.6781 5.59213C32.9981 5.59213 31.7172 5.79873 30.7876 7.32064C30.2504 6.19556 29.2183 5.61193 27.693 5.61193C27.1634 5.60924 26.6443 5.75912 26.1976 6.04367C25.751 6.32821 25.3957 6.73538 25.1743 7.21648V5.80475H22.3027V15.5319H25.1718V10.3851C25.1718 8.90624 25.9775 8.40612 26.8443 8.40612C27.6706 8.40612 28.4126 9.05172 28.4342 10.281V15.5319H31.304V10.3851C31.304 8.9708 32.0478 8.40784 32.9559 8.40784V8.40698Z" fill="white"/>
</g>
<defs>
<clipPath id="clip0_1263_7548">
<rect width="108.775" height="19.7986" fill="white" transform="translate(0 0.504761)"/>
</clipPath>
</defs>
</svg>
