<svg width="80" height="25" viewBox="0 0 80 25" fill="none" xmlns="http://www.w3.org/2000/svg">
<g clip-path="url(#clip0_23_2409)">
<g clip-path="url(#clip1_23_2409)">
<path d="M48.7219 13.6983C48.7219 13.6983 48.5615 13.0762 48.5615 12.615V5.40022H51.2959V19.2968L42.5415 11.6365C42.0731 11.2159 41.7959 10.7463 41.7959 10.7463C41.7959 10.7463 41.9347 11.2641 41.9347 11.7122L41.9323 18.9832H39.1963V5.14111L47.8703 12.6476C48.3355 13.0639 48.7219 13.6983 48.7219 13.6983Z" fill="white"/>
<path d="M73.4808 5.40137C77.814 5.40137 78.9236 7.20707 78.9236 9.80235C78.9236 11.6833 77.6128 13.5262 74.9692 13.7443L74.6796 13.7591C74.6796 13.7591 74.9352 13.8069 75.2024 14.0786L80 18.9826H76.2928L69.5952 11.7966H72.93C75.9172 11.7966 76.004 10.1333 76.0244 9.71401C76.0804 8.63447 75.7536 7.77136 73.4756 7.77136H69.6624V18.9826H66.8208V5.40137H73.4808Z" fill="white"/>
<path d="M52.5261 12.3859C52.5261 6.6962 57.0329 5.20117 60.8213 5.20117C62.3381 5.20117 63.6813 5.34488 65.0949 5.66147L65.0989 8.54671C64.2861 8.28254 62.6537 7.70261 60.8217 7.70261C57.2301 7.70261 55.4861 9.17693 55.4861 12.3855C55.4861 15.0138 57.3661 16.688 60.8217 16.688C62.6537 16.688 64.4881 16.2273 65.3765 15.8811L65.3713 18.6801C63.9593 18.995 62.3385 19.1895 60.8217 19.1895C56.7753 19.1899 52.5261 17.1116 52.5261 12.3859Z" fill="white"/>
<path d="M21.7549 5.75049L24.4217 8.40452C24.3489 8.43876 24.2649 8.48103 24.1661 8.53344C24.0117 8.6184 23.8277 8.7321 23.6073 8.89357C23.1677 9.21269 22.5949 9.72245 21.8621 10.5581L16.6501 16.3865C15.7569 17.384 14.8493 18.1744 14.0053 18.5925L11.3369 15.9376C11.4097 15.9017 11.4937 15.8619 11.5909 15.807C11.7453 15.7237 11.9293 15.6083 12.1497 15.4494C12.5881 15.1273 13.1625 14.6205 13.8961 13.7836L19.1069 7.96493C20.0005 6.96866 20.9097 6.16852 21.7549 5.75049Z" fill="white"/>
<path d="M11.4316 19.8396C12.6104 19.8396 13.694 19.5927 14.4292 19.1899C14.7652 19.0048 15.2448 18.6861 15.6572 18.3462C16.068 18.0077 16.6504 17.4801 17.1428 16.9269L22.36 11.1149C23.676 9.65035 24.4668 9.19808 24.9468 9.02013L27.6228 11.6987C27.0644 12.3297 20.404 19.8256 20.404 19.8256C19.95 20.3438 19.4716 20.8439 19.1464 21.1588C18.834 21.4631 18.2996 21.9166 18.0236 22.1301C16.4572 23.3428 14.3648 24.3264 11.5472 24.3264C5.1628 24.3264 0 18.8353 0 12.5123C0 4.6686 5.7996 0.117141 11.0816 0.117141C12.7008 0.0664185 14 0.354266 15.0272 0.722846C15.9764 1.06395 16.6932 1.47649 17.2132 1.75715C16.5984 2.1735 16.0036 2.74116 15.0232 3.84775L13.952 5.06296C13.7056 4.96279 12.6128 4.55997 11.21 4.6052C7.8208 4.71087 4.114 7.61386 4.2476 12.3762C4.372 16.8292 7.8456 19.8396 11.4316 19.8396Z" fill="white"/>
<path d="M21.2961 5.19309C20.9589 5.3795 20.4805 5.69735 20.0657 6.03719C19.6561 6.37576 19.0741 6.90327 18.5801 7.4553L13.3641 13.2685C12.0481 14.7331 11.2569 15.1836 10.7773 15.362L8.10132 12.686C8.66132 12.0532 15.3205 4.55864 15.3205 4.55864C15.7757 4.04043 16.2529 3.5404 16.5781 3.22423C16.8905 2.9199 17.4249 2.46805 17.7033 2.25291C19.2669 1.04023 21.3621 0.0566406 24.1797 0.0566406C30.5637 0.0566406 35.7241 5.54815 35.7241 11.8694C35.7241 19.7157 29.9257 24.2646 24.6425 24.2646C23.0245 24.3166 21.7241 24.0287 20.6985 23.6572C19.7469 23.3173 19.0273 22.9023 18.5085 22.6229C19.1581 22.1596 19.7141 21.6516 20.7021 20.5361L21.7717 19.3209C22.0181 19.4194 23.1113 19.8226 24.5153 19.7786C27.9033 19.6717 31.6113 16.7658 31.4777 12.0046C31.3521 7.55378 27.8761 4.54216 24.2921 4.54216C23.1113 4.54216 22.0325 4.79028 21.2961 5.19309Z" fill="white"/>
</g>
</g>
<defs>
<clipPath id="clip0_23_2409">
<rect width="80" height="24.2697" fill="white" transform="translate(0 0.0566406)"/>
</clipPath>
<clipPath id="clip1_23_2409">
<rect width="80" height="24.2697" fill="white" transform="translate(0 0.0566406)"/>
</clipPath>
</defs>
</svg>
