<svg width="113" height="16" viewBox="0 0 113 16" fill="none" xmlns="http://www.w3.org/2000/svg">
<g clip-path="url(#clip0_1239_7223)">
<path d="M8.4704 2.46711C8.4704 1.23952 7.30418 0.932617 6.38349 0.932617V1.11676C6.9359 1.11676 7.36556 1.3009 7.36556 1.73055C7.36556 1.97607 7.18142 2.34435 6.62901 2.34435C6.19935 2.34435 5.27865 2.09883 4.60348 1.85331C3.80554 1.54641 3.06898 1.3009 2.45519 1.3009C1.22759 1.3009 0.368278 2.22159 0.368278 3.26505C0.368278 4.18574 1.04345 4.49264 1.28897 4.6154L1.35035 4.49264C1.22759 4.36988 1.04345 4.24712 1.04345 3.87884C1.04345 3.63332 1.28897 3.20367 1.90277 3.20367C2.45519 3.20367 3.19174 3.44918 4.17382 3.75608C5.03313 4.0016 5.95383 4.18574 6.44487 4.24712V6.1499L5.52417 6.94784V7.00922L6.44487 7.80715V10.4465C5.95383 10.7534 5.40141 10.8148 4.91038 10.8148C3.98968 10.8148 3.19174 10.5692 2.51657 9.83268L5.03313 8.60509V4.36988L1.96415 5.72023C2.20967 4.9223 2.88485 4.36988 3.56002 4.0016L3.49864 3.81746C1.65725 4.3085 0 6.02714 0 8.11405C0 10.5692 2.02553 12.4106 4.29658 12.4106C6.75177 12.4106 8.34764 10.4465 8.34764 8.42095H8.22488C7.8566 9.21889 7.30418 9.95544 6.62901 10.3237V7.80715L7.61108 7.00922V6.94784L6.62901 6.1499V4.24712C7.5497 4.24712 8.4704 3.63332 8.4704 2.46711ZM3.13036 9.21888L2.39381 9.58716C1.96415 9.03475 1.71863 8.29819 1.71863 7.25473C1.71863 6.82508 1.71863 6.33404 1.84139 5.96576L3.13036 5.41333V9.21888ZM9.63661 10.6306L8.83868 11.2444L8.96143 11.3672L9.32971 11.0603L10.6801 12.2879L12.5215 11.0603L12.4601 10.9375L11.969 11.2444L11.3552 10.6306V6.4568L11.8463 6.08852L12.8897 6.94784V10.692C12.8897 13.0244 12.3987 13.3927 11.3552 13.761V13.9451C13.0739 14.0065 14.6697 13.4541 14.6697 10.4465V6.39542L15.2222 5.96576L15.0994 5.843L14.6084 6.21128L13.0739 4.9223L11.3552 6.21128V1.17814H11.2325L9.08419 2.65125V2.77401C9.32971 2.89677 9.69799 3.01953 9.69799 3.6947L9.63661 10.6306ZM20.8691 9.95544L19.3346 11.1217L17.8001 9.89406V9.15751L20.685 7.19336V7.13198L19.2118 4.9223L16.0201 6.64094V10.692L15.4063 11.183L15.5291 11.3058L16.0815 10.8761L18.1684 12.4106L20.9305 10.201L20.8691 9.95544ZM17.8001 8.91199V5.90438L17.9229 5.843L19.2732 7.99129L17.8001 8.91199ZM32.5926 1.91469C32.5926 1.73055 32.5312 1.54641 32.4699 1.36228H32.3471C32.163 1.85331 31.9174 2.09883 31.3036 2.09883C30.7512 2.09883 30.3829 1.79193 30.1374 1.54641L28.3574 3.57194L28.4802 3.6947L29.094 3.14229C29.4622 3.44918 29.7691 3.6947 30.6285 3.75608V8.85061L27.0071 2.65125C26.7002 2.16021 26.2705 1.48503 25.4112 1.48503C24.4291 1.48503 23.5698 2.34435 23.6926 3.6947H23.8767C23.9381 3.32642 24.1222 2.89677 24.5519 2.89677C24.8588 2.89677 25.1657 3.20367 25.3498 3.51056V5.53609C24.245 5.53609 23.5084 6.02714 23.5084 6.94784C23.5084 7.43887 23.7539 8.17543 24.4905 8.35957V8.23681C24.3677 8.11405 24.3064 7.99129 24.3064 7.80715C24.3064 7.50025 24.5519 7.25473 24.9815 7.25473H25.2884V9.83268C23.9995 9.83268 22.956 10.5692 22.956 11.7968C22.956 12.963 23.9381 13.5155 25.0429 13.4541V13.3313C24.3677 13.2699 24.0608 12.963 24.0608 12.5334C24.0608 11.981 24.4291 11.7355 24.9202 11.7355C25.4112 11.7355 25.8408 12.0423 26.1477 12.4106L27.9278 10.4465L27.805 10.3237L27.3753 10.8148C26.7002 10.201 26.3319 10.0168 25.5339 9.89406V3.75608L30.4443 12.3492H30.8126V3.75608C31.7333 3.6947 32.5926 2.95815 32.5926 1.91469ZM37.0733 9.95544L35.5388 11.1217L34.0043 9.89406V9.15751L36.8892 7.19336V7.13198L35.4161 4.9223L32.2243 6.64094V10.692L31.6105 11.183L31.7333 11.3058L32.2857 10.8761L34.3726 12.4106L37.1347 10.201L37.0733 9.95544ZM34.0043 8.91199V5.90438L34.1271 5.843L35.4775 7.99129L34.0043 8.91199ZM47.0782 5.59747L46.6486 5.90438L45.4823 4.9223L44.132 6.1499L44.6844 6.70232V11.3058L43.2113 10.3851V6.57956L43.7023 6.27266L42.2906 4.9223L40.9403 6.1499L41.4927 6.70232V11.1217L41.3085 11.2444L40.0196 10.3237V6.64094C40.0196 5.78161 39.5899 5.53609 39.0989 5.2292C38.6692 4.9223 38.4237 4.73816 38.4237 4.3085C38.4237 3.94022 38.792 3.75608 38.9761 3.63332V3.51056C38.4851 3.51056 37.1961 4.0016 37.1961 5.16782C37.1961 5.78161 37.503 6.02714 37.8099 6.33404C38.1168 6.64094 38.4237 6.88646 38.4237 7.43887V10.9989L37.7485 11.4899L37.8713 11.6127L38.4851 11.1217L39.8968 12.3492L41.4313 11.3058L43.1499 12.3492L46.403 10.4465V6.33404L47.201 5.72023L47.0782 5.59747ZM58.4948 2.22159L57.881 2.77401L56.5307 1.54641L54.5052 3.01953V1.66917H54.321L54.3824 11.6127C54.1983 11.6127 53.6458 11.4899 53.2162 11.3672L53.0934 3.08091C53.0934 2.46711 52.6638 1.60779 51.5589 1.60779C50.4541 1.60779 49.7175 2.46711 49.7175 3.32642H49.9017C49.9631 2.95815 50.1472 2.65125 50.5155 2.65125C50.8838 2.65125 51.1907 2.89677 51.1907 3.6947V6.08852C50.0858 6.1499 49.4106 6.7637 49.4106 7.56163C49.4106 8.05267 49.6562 8.78923 50.3927 8.78923V8.66647C50.1472 8.54371 50.0858 8.35957 50.0858 8.23681C50.0858 7.86853 50.3927 7.74577 50.8838 7.74577H51.1293V11.5513C50.2086 11.8582 49.8403 12.5334 49.8403 13.2699C49.8403 14.3134 50.6382 15.05 51.8658 15.05C52.7252 15.05 53.4617 14.9272 54.1983 14.7431C54.8121 14.6203 55.61 14.4362 55.9783 14.4362C56.4693 14.4362 56.6535 14.6817 56.6535 14.9886C56.6535 15.4182 56.4693 15.6024 56.2238 15.6638V15.7865C57.2059 15.6024 57.8197 14.9886 57.8197 14.0679C57.8197 13.1472 56.899 12.5948 55.9169 12.5948C55.4259 12.5948 54.3824 12.7789 53.6458 12.9017C52.7865 13.0858 51.9272 13.2086 51.6817 13.2086C51.252 13.2086 50.761 13.0244 50.761 12.4106C50.761 11.9196 51.1907 11.4899 52.2341 11.4899C52.7865 11.4899 53.4617 11.5513 54.1369 11.7355C54.8734 11.9196 55.5486 12.1037 56.1624 12.1037C57.0831 12.1037 57.881 11.7968 57.881 10.5079V2.95815L58.6176 2.34435L58.4948 2.22159ZM55.9783 5.96576C55.7941 6.1499 55.5486 6.33404 55.2417 6.33404C54.9348 6.33404 54.6279 6.1499 54.5052 5.96576V3.26505L55.119 2.83539L55.9783 3.63332V5.96576ZM55.9783 7.80715C55.8555 7.68439 55.5486 7.50025 55.2417 7.50025C54.9348 7.50025 54.6279 7.68439 54.5052 7.80715V6.21128C54.6279 6.33404 54.9348 6.51818 55.2417 6.51818C55.5486 6.51818 55.8555 6.33404 55.9783 6.21128V7.80715ZM55.9783 10.692C55.9783 11.183 55.6714 11.6741 54.9962 11.6741H54.5052V8.05267C54.6279 7.92991 54.9348 7.74577 55.2417 7.74577C55.5486 7.74577 55.7941 7.92991 55.9783 8.05267V10.692ZM64.3873 6.33404L62.4231 4.9223L59.4155 6.64094V10.6306L58.8017 11.1217L58.8631 11.2444L59.3542 10.8761L61.3183 12.3492L64.3873 10.5079V6.33404ZM61.0728 10.201V5.78161L62.6073 6.88646V11.2444L61.0728 10.201ZM70.2184 5.04506H70.0956C69.9115 5.16782 69.7273 5.29058 69.5432 5.29058C69.2977 5.29058 68.9908 5.16782 68.868 4.98368H68.7452L67.7018 6.1499L66.6583 4.98368L64.8169 6.21128L64.8783 6.33404L65.3694 6.02714L65.9832 6.70232V10.5692L65.1852 11.183L65.308 11.3058L65.6763 10.9989L67.1494 12.2265L69.0521 10.9375L68.9908 10.8148L68.4384 11.1217L67.7018 10.5079V6.21128C68.0087 6.51818 68.377 6.82508 68.8066 6.82508C69.6659 6.88646 70.157 6.02714 70.2184 5.04506ZM77.5839 10.9375L75.497 12.3492L72.6735 8.05267L74.6991 4.9223H74.8218C75.0674 5.16782 75.4356 5.41333 75.8653 5.41333C76.295 5.41333 76.6018 5.16782 76.786 4.9223H76.9087C76.8474 6.1499 75.9881 6.88646 75.3743 6.88646C74.7605 6.88646 74.4536 6.57956 74.0853 6.39542L73.9011 6.70232L76.9701 11.2444L77.5839 10.8761V10.9375ZM70.8322 10.6306L70.0342 11.2444L70.157 11.3672L70.5253 11.0603L71.8756 12.2879L73.717 11.0603L73.5942 10.9375L73.1032 11.2444L72.4894 10.6306V1.17814H72.428L70.2184 2.65125V2.77401C70.4639 2.89677 70.8322 2.95815 70.8322 3.6947V10.6306ZM87.773 2.46711C87.773 1.23952 86.6067 0.932617 85.686 0.932617V1.11676C86.2385 1.11676 86.6681 1.3009 86.6681 1.73055C86.6681 1.97607 86.484 2.34435 85.9316 2.34435C85.5019 2.34435 84.5812 2.09883 83.906 1.85331C83.1081 1.60779 82.3715 1.36228 81.7577 1.36228C80.5301 1.36228 79.6708 2.28297 79.6708 3.32642C79.6708 4.24712 80.346 4.55402 80.5915 4.67678L80.6529 4.55402C80.4688 4.43126 80.2846 4.3085 80.2846 3.94022C80.2846 3.6947 80.5301 3.26505 81.1439 3.26505C81.6964 3.26505 82.4329 3.51056 83.415 3.81746C84.2743 4.06298 85.195 4.24712 85.686 4.3085V6.21128L84.7653 7.00922V7.0706L85.686 7.86853V10.5079C85.195 10.8148 84.6426 10.8761 84.1516 10.8761C83.2309 10.8761 82.4329 10.6306 81.7577 9.89406L84.2743 8.66647V4.36988L81.2053 5.72023C81.5122 4.9223 82.1874 4.36988 82.8012 3.94022L82.7398 3.81746C80.8984 4.3085 79.2412 5.96576 79.2412 8.05267C79.2412 10.5079 81.2667 12.3492 83.5378 12.3492C85.9929 12.3492 87.5888 10.3851 87.5888 8.35957H87.466C87.0978 9.15751 86.5454 9.89406 85.8702 10.2623V7.74577L86.8523 6.94784V6.88646L85.9316 6.08852V4.24712C86.8523 4.24712 87.773 3.63332 87.773 2.46711ZM82.4329 9.21888L81.6964 9.58716C81.2667 9.03475 81.0212 8.29819 81.0212 7.25473C81.0212 6.82508 81.0826 6.33404 81.2053 5.96576L82.4943 5.41333L82.4329 9.21888ZM89.9212 1.85331H89.8599L88.6323 2.89677V2.95815L89.6757 4.12436H89.7985L91.0261 3.08091V3.01953L89.9212 1.85331ZM91.7626 10.9375L91.2716 11.2444L90.6578 10.6306V6.39542L91.2716 5.96576L91.1488 5.843L90.7192 6.21128L89.6143 4.9223L87.8343 6.1499L87.9571 6.33404L88.3867 6.02714L88.9392 6.70232V10.692L88.1412 11.3058L88.2026 11.4286L88.6323 11.1217L89.9826 12.3492L91.824 11.1217L91.7626 10.9375ZM102.013 10.8761L101.583 11.183L100.908 10.5692V6.39542L101.522 5.90438L101.399 5.78161L100.908 6.21128L99.4965 4.9223L97.6551 6.21128L96.2433 4.9223L94.5247 6.21128L93.4199 4.9223L91.6399 6.1499L91.7012 6.33404L92.1309 6.02714L92.7447 6.70232V10.692L92.2537 11.183L93.6654 12.3492L95.0157 11.1217L94.4633 10.5692V6.39542L95.0157 6.02714L95.9364 6.88646V10.5692L95.4454 11.0603L96.8571 12.2265L98.2075 10.9989L97.6551 10.4465V6.39542L98.1461 6.08852L99.1282 6.94784V10.6306L98.6985 11.0603L100.11 12.3492L102.013 11.0603V10.8761ZM107.353 9.95544L105.819 11.1217L104.284 9.89406V9.15751L107.169 7.19336V7.13198L105.696 4.9223L102.504 6.64094V10.8148L104.652 12.3492L107.414 10.1396L107.353 9.95544ZM104.284 8.91199V5.90438L104.407 5.843L105.757 7.99129L104.284 8.91199ZM112.939 8.35957L111.772 7.43887C112.57 6.7637 112.877 5.843 112.877 5.2292V4.86092H112.754C112.632 5.16782 112.386 5.47471 111.895 5.47471C111.404 5.47471 111.097 5.2292 110.79 4.86092L108.028 6.39542V8.60509L109.072 9.40302C108.028 10.3237 107.844 10.9375 107.844 11.4286C107.844 12.0423 108.151 12.472 108.642 12.6561L108.703 12.5334C108.581 12.4106 108.458 12.3492 108.458 12.0424C108.458 11.8582 108.703 11.5513 109.194 11.5513C109.808 11.5513 110.177 11.981 110.361 12.1651L113 10.5692V8.35957H112.939ZM112.263 6.51818C111.834 7.25473 110.913 7.99129 110.361 8.35957L109.686 7.80715V5.65885C109.931 6.27266 110.606 6.7637 111.281 6.7637C111.711 6.7637 111.957 6.70232 112.263 6.51818ZM111.22 11.4286C110.913 10.7534 110.177 10.2623 109.44 10.2623C109.256 10.2623 108.765 10.2623 108.274 10.5692C108.581 10.0782 109.379 9.21888 110.422 8.60509L111.159 9.21888L111.22 11.4286Z" fill="white"/>
</g>
<defs>
<clipPath id="clip0_1239_7223">
<rect width="113" height="14.8539" fill="white" transform="translate(0 0.932617)"/>
</clipPath>
</defs>
</svg>
