<svg width="370" height="90" viewBox="0 0 370 90" fill="none" xmlns="http://www.w3.org/2000/svg">
<path d="M62.9933 61.2143C57.9009 61.953 55.3514 57.7021 57.0225 54.0336C58.411 50.9821 59.0953 47.6973 59.0953 44.2014C59.0945 40.7041 58.4663 37.4828 57.0756 34.4299C55.8422 31.4559 57.9097 26.4564 63.0037 27.1938C65.7364 27.591 67.8629 25.0266 67.8629 21.4822C67.8629 17.9427 65.7364 14.5191 63.0037 13.8098C60.1346 13.0687 57.7037 15.5681 57.7037 19.4308C57.7037 26.1641 54.0072 28.8797 51.0228 26.3473C48.3891 24.1061 45.314 22.6609 41.7864 22.0977C38.0352 21.4998 34.3504 22.0748 31.0619 23.5828C27.6252 24.8229 21.1634 20.6399 21.1634 12.036C21.1634 7.02254 16.874 1.84592 11.2508 0.389557C5.2305 -1.16941 0.025097 2.08434 0.0228825 7.76215C0.0243588 13.4444 5.22977 18.8033 11.2493 19.6773C20.1905 20.9735 24.381 26.6048 22.7054 30.7511C20.2267 34.407 18.7179 39.0004 18.7172 44.2044C18.7172 49.1537 20.0938 53.5412 22.3584 57.1073C23.9197 60.6717 20.4651 67.3622 11.2316 68.7027C5.20911 69.5722 0.00147629 74.9327 0 80.6134C0 86.2936 5.20763 89.5479 11.2302 87.9897C16.8526 86.5334 21.1443 81.3583 21.1443 76.3432C21.1443 76.3426 21.1443 76.341 21.1443 76.341C21.1463 67.9794 26.4796 63.2249 30.6006 64.5884C34.0056 66.2617 37.8565 66.9379 41.7878 66.3097C45.2978 65.7502 48.3389 64.3485 50.9645 62.1258C53.4121 60.2051 57.6928 62.2448 57.6928 68.9765C57.6928 72.8386 60.1234 75.3446 62.9941 74.5991C65.726 73.8896 67.8533 70.4683 67.8533 66.9253C67.8533 63.3822 65.7252 60.817 62.9933 61.2143ZM41.6217 58.0188C34.3939 58.8337 27.8791 52.6886 27.8791 44.2036C27.8791 35.7202 34.3939 29.5772 41.6217 30.3922C48.0866 31.1209 52.8468 37.2755 52.8468 44.2014C52.8468 51.132 48.0866 57.2894 41.6217 58.0188Z" fill="white"/>
<path d="M64.5308 30.9098H71.91V34.0498L72.2778 33.6314L72.7464 33.0556C74.4736 31.2241 76.3057 30.3872 78.6611 30.2831H79.5513V36.9795C79.1838 36.8754 78.8176 36.8231 78.4515 36.7707C74.2654 36.4031 72.2245 38.551 72.2245 42.6846V58.0152H64.5308V30.9098Z" fill="white"/>
<path d="M87.3345 30.5435C85.8163 30.649 84.4564 30.7525 82.8865 31.0137V36.8746C83.3043 36.7705 83.7258 36.7188 84.1421 36.6664C87.0732 36.2988 89.6893 36.2988 91.3634 36.5092C95.8107 37.0333 97.5904 38.7605 97.5904 41.5337V43.416C96.1783 42.3687 94.5027 41.7427 91.99 41.4792C90.7861 41.3227 89.5838 41.3751 88.3804 41.5337C82.5204 42.2638 79.2209 45.8225 79.1191 50.0624C78.9078 54.4057 82.7825 58.4336 89.3237 58.4336C92.2004 58.486 94.4495 57.7531 96.5436 56.2886C96.8057 56.079 97.1208 55.8184 97.38 55.6088V58.0158H104.969V42.0039C104.968 34.2069 100.048 30.0733 87.3345 30.5435ZM95.9679 52.7301C95.2889 53.2032 94.4495 53.5154 93.2463 53.6734C92.6196 53.7775 91.9908 53.7775 91.3116 53.7258C88.328 53.4638 86.8081 51.8923 86.7602 49.9583C86.9161 47.498 89.2182 45.6667 93.2463 46.1915C94.7115 46.3466 95.9162 46.9237 96.6499 47.6036C98.1129 48.964 97.9033 51.4759 95.9679 52.7301Z" fill="white"/>
<path d="M110.741 30.9092H118.119V33.8412C118.327 33.6308 118.54 33.4212 118.746 33.2116C120.891 31.3292 123.09 30.4398 125.706 30.3874C132.298 30.2294 136.381 34.6767 136.381 42.4229V58.0162H128.69V43.4156C128.742 39.4377 127.328 37.3983 124.554 36.666C120.735 35.7241 118.431 37.816 118.431 42.0035V58.0154H110.741V30.9092Z" fill="white"/>
<path d="M161.907 30.9092V34.0494C158.663 30.177 151.756 29.393 146.471 33.1605C143.592 35.2008 141.603 38.3401 141.027 42.0035C140.873 42.8924 140.82 43.731 140.82 44.6196C140.766 45.4573 140.82 46.3468 140.922 47.1839C141.498 51.9464 144.22 55.6608 148.301 57.4929C153.481 59.8483 158.768 58.645 161.541 55.4532V57.4419C161.541 61.4161 159.029 63.7183 153.481 63.8246C152.017 63.8762 150.553 63.6674 149.087 63.2482V69.9469C150.709 70.2075 152.278 70.3136 153.847 70.3136C164.208 70.1579 169.287 65.4457 169.287 57.8582V30.9092H161.907ZM161.907 45.7194C161.489 49.3275 159.501 51.578 156.623 52.0505C152.436 52.7827 149.192 50.27 148.668 45.6655C148.617 45.2447 148.564 44.8816 148.564 44.4608C148.564 44.043 148.618 43.6252 148.668 43.2052C149.192 39.0193 151.649 36.717 155.263 36.717C158.871 36.717 161.385 39.0193 161.907 43.2591C162.012 44.0438 162.012 44.8816 161.907 45.7194Z" fill="white"/>
<path d="M201.518 44.2911C201.379 36.3472 195.995 30.6907 188.306 30.143C186.432 30.0322 184.57 30.2516 182.82 30.8324C182.335 30.9957 181.858 31.1957 181.402 31.4039C176.545 33.6588 173.17 38.6044 173.17 44.3264C173.17 49.1496 175.563 53.3992 179.224 55.9686L179.281 56.0032C180.622 56.9083 182.16 57.6308 183.865 58.1158C189.343 59.7117 194.552 58.2848 198.599 54.1211C198.838 53.8663 199.012 53.6441 199.25 53.3843L193.398 49.3385C193.255 49.4597 193.16 49.5961 193.016 49.7156C191.917 50.8665 190.848 51.5382 189.669 51.849C187.702 52.4203 185.794 52.2438 184.302 51.3766C182.189 50.2147 181.047 48.1376 181.179 46.3779L201.421 46.4974C201.473 45.7497 201.513 45.0522 201.518 44.2911ZM181.492 41.5644C181.609 41.1627 181.679 40.7466 181.843 40.3589C182.921 37.4034 185.504 35.6481 188.471 35.7493C191.77 35.8378 194.139 37.9984 194.547 40.8978L194.632 41.3585L194.645 41.6907L181.492 41.5644Z" fill="white"/>
<path d="M203.75 30.9099H206.788V24.0022L210.709 22.3805V30.9099H217.985L217.251 33.7894H210.711V48.074L210.766 48.544L210.817 50.5843C210.868 53.7775 212.858 55.5055 216.938 55.2451C217.251 55.2451 217.567 55.1904 217.882 55.1394V58.1726C217.569 58.2248 217.251 58.2766 216.938 58.2766C209.248 58.9069 206.79 56.237 206.79 48.1779V33.7894H203.281L203.75 30.9099Z" fill="white"/>
<path d="M221.277 21.6584L225.254 20.0825V35.3045C225.723 34.6261 226.301 33.9965 226.927 33.423C228.448 32.0095 230.279 31.0676 232.316 30.649C240.218 28.9743 246.082 34.0504 246.082 42.2668V58.0172H242.105V43.5732C242.105 36.9262 239.07 33.5787 233.784 33.6828C228.498 33.7367 225.254 37.2421 225.254 42.8919V58.0158H221.277V21.6584Z" fill="white"/>
<path d="M316.752 30.9101H320.623V34.7316C320.779 34.5218 320.887 34.3122 321.046 34.1026C322.926 31.4866 325.333 30.1786 328.472 30.1261C328.838 30.1261 329.206 30.1261 329.574 30.1786V33.8936C329.206 33.842 328.787 33.7898 328.366 33.7898C325.961 33.684 323.869 34.5218 322.454 36.0913C321.251 37.5032 320.73 38.9691 320.73 41.3764V58.0164H316.752V30.9101Z" fill="white"/>
<path d="M365.011 20.9024C367.821 20.9024 370 23.0844 370 25.8022C370 28.5829 367.821 30.7346 364.981 30.7346C362.169 30.7346 359.931 28.5821 359.931 25.8022C359.931 23.0844 362.169 20.9024 364.981 20.9024H365.011ZM364.95 21.888C362.797 21.888 361.185 23.6514 361.185 25.8016C361.185 27.9834 362.797 29.7173 365.011 29.7173C367.162 29.7462 368.746 27.9834 368.746 25.8016C368.746 23.6505 367.162 21.888 364.979 21.888H364.95ZM364.204 28.343H363.068V23.4727C363.517 23.3812 364.143 23.2919 364.95 23.2919C365.877 23.2919 366.296 23.4418 366.654 23.6808C366.922 23.8904 367.131 24.2795 367.131 24.7268C367.131 25.2944 366.713 25.713 366.115 25.8915V25.9515C366.593 26.1013 366.863 26.4902 367.011 27.1472C367.16 27.8942 367.251 28.1932 367.369 28.343H366.145C365.995 28.1643 365.906 27.7458 365.757 27.1781C365.668 26.6394 365.367 26.4001 364.739 26.4001H364.202V28.343H364.204ZM364.232 25.5941H364.771C365.399 25.5941 365.908 25.3845 365.908 24.8766C365.908 24.4277 365.576 24.1297 364.861 24.1297C364.562 24.1297 364.354 24.1584 364.232 24.1895V25.5941Z" fill="white"/>
<path d="M299.459 30.1774C289.569 28.7638 282.348 35.1488 282.348 44.3585C282.348 53.5677 289.569 59.9526 299.459 58.5391C306.886 57.4407 311.494 51.9452 311.494 44.3585C311.494 36.7713 306.886 31.2772 299.459 30.1774ZM298.776 55.2928C297.538 55.5075 296.3 55.5075 295.117 55.2928C289.674 54.3752 286.227 50.1753 286.227 44.3579C286.227 40.8561 287.412 38.0563 289.567 36.0618C291.451 34.2844 293.984 33.3153 296.946 33.3153C299.906 33.3153 302.442 34.2844 304.326 36.0618C305.993 37.6237 307.02 39.5628 307.451 41.9869C308.636 48.8827 304.918 54.2144 298.776 55.2928Z" fill="white"/>
<path d="M332.811 30.9015H336.789V45.7125C336.789 51.4154 338.722 54.0836 343.223 54.92C344.427 55.1318 345.63 55.1318 346.834 54.8684C351.386 54.0306 353.478 51.3105 353.478 46.5486V30.9015H357.405V56.857C357.405 64.3387 351.961 69.2585 340.869 68.5801C340.188 68.5801 339.562 68.4746 338.932 68.4207V65.0724C339.562 65.1787 340.188 65.2281 340.816 65.282C349.45 65.7522 353.429 62.249 353.429 56.1772V53.7169C353.22 54.0298 352.957 54.2934 352.748 54.5547C350.394 57.1707 347.674 58.373 343.902 58.373C338.729 58.373 335.628 55.8627 334.069 53.048C333.821 52.5994 333.612 52.0295 333.441 51.4457C333 49.9522 332.811 48.2553 332.811 46.2947V30.9015Z" fill="white"/>
<path d="M278.122 45.4809C278.175 44.8993 278.179 44.3014 278.17 43.756C277.809 35.3403 270.592 29.2985 262.199 30.5364C257.27 31.2731 253.307 34.3496 251.441 38.8805L251.461 38.8132C250.776 40.539 250.406 42.4701 250.406 44.545C250.406 51.3182 254.338 56.5435 260.354 58.1896L260.362 58.1815C264.796 59.423 269.587 58.6863 273.236 56.1227C274.328 55.3424 275.282 54.4679 276.107 53.45L273.153 51.3729C272.984 51.5979 272.777 51.7567 272.621 51.9309C268.9 55.5071 263.952 56.2947 259.872 54.1747C256.593 52.4941 254.696 49.5747 254.476 46.0876C254.48 45.8715 254.488 45.6566 254.509 45.3901L278.122 45.4809ZM255.145 40.4062C256.635 36.0429 260.368 33.3915 264.863 33.4551C269.29 33.5539 272.818 36.2807 273.94 40.2357C274.092 40.6585 274.182 41.1192 274.22 41.5628L274.296 42.0743L274.32 42.5697L254.73 42.4642C254.765 41.7681 254.96 41.0617 255.145 40.4062Z" fill="white"/>
<path d="M184.591 88.3808H188.125V80.4081H197.344V77.2607H188.125V72.7662H197.538V69.6202H184.591V88.3808Z" fill="white"/>
<path d="M209.492 69.6202H205.959V88.3808H209.492V69.6202Z" fill="white"/>
<path d="M217.391 72.7662H222.983V88.3808H226.517V72.7662H232.109V69.6202H217.391V72.7662Z" fill="white"/>
<path d="M252.8 82.4057L243.625 69.6814L243.583 69.6202H240.037V88.3808H243.57V75.2383L252.938 88.3188L252.983 88.3808H256.333V69.6202H252.8V82.4057Z" fill="white"/>
<path d="M265.978 88.3808H278.923V85.2342H269.511V80.4081H278.73V77.2607H269.511V72.7662H278.923V69.6202H265.978V88.3808Z" fill="white"/>
<path d="M294.713 76.9897L294.688 76.983C292.578 76.4487 290.755 75.9866 290.755 74.6682C290.755 73.3617 291.923 72.518 293.735 72.518C295.784 72.518 297.644 73.2494 298.974 74.579L299.092 74.6977L301.131 72.0508L301.035 71.9593C299.242 70.2232 296.88 69.3433 294.011 69.3433C290.029 69.3433 287.138 71.6757 287.138 74.8896C287.138 78.9163 290.838 79.833 293.808 80.5689L293.851 80.5801C296.028 81.1441 297.906 81.6312 297.906 83.1673C297.906 84.2612 296.973 85.5389 294.345 85.5389C291.397 85.5389 289.486 83.9725 288.61 83.0388L288.488 82.9081L286.512 85.643L286.595 85.7317C288.421 87.6825 291.053 88.713 294.204 88.713C297.73 88.713 301.495 87.1761 301.495 82.8623C301.497 78.7155 297.736 77.7582 294.713 76.9897Z" fill="white"/>
<path d="M316.883 76.9897L316.858 76.983C314.748 76.4487 312.924 75.9866 312.924 74.6682C312.924 73.3617 314.093 72.518 315.905 72.518C317.954 72.518 319.814 73.2494 321.144 74.579L321.262 74.6977L323.301 72.0508L323.205 71.9593C321.412 70.2232 319.05 69.3433 316.181 69.3433C312.199 69.3433 309.308 71.6757 309.308 74.8896C309.308 78.9163 313.008 79.833 315.98 80.5689L316.021 80.5801C318.198 81.1441 320.076 81.6312 320.076 83.1673C320.076 84.2612 319.143 85.5389 316.515 85.5389C313.567 85.5389 311.656 83.9725 310.78 83.0388L310.658 82.9081L308.682 85.643L308.765 85.7317C310.591 87.6825 313.223 88.713 316.374 88.713C319.9 88.713 323.665 87.1761 323.665 82.8623C323.665 78.7155 319.904 77.7582 316.883 76.9897Z" fill="white"/>
</svg>
