<svg width="55" height="21" viewBox="0 0 55 21" fill="none" xmlns="http://www.w3.org/2000/svg">
<g clip-path="url(#clip0_1263_7556)">
<path d="M5.47515 5.11588H0L0 0.0105591H17.0162V5.11588H11.5399V20.0106H5.47515V5.11588V5.11588ZM17.9578 0.0105591H34.5033V5.11588H24.0231V7.57855H34.5033V12.3826H24.0231V14.9052H34.5033V20.0106H17.9578V0.0105591V0.0105591ZM35.5035 0.0105591H45.4542C51.9903 0.0105591 54.2857 4.93572 54.2857 9.98093C54.2857 16.1069 51.1056 20.0106 44.2764 20.0106H35.5035V0.0105591V0.0105591ZM41.5688 14.9052H43.9228C47.691 14.9052 48.2221 11.7827 48.2221 9.92099C48.2221 8.65918 47.81 5.17599 43.452 5.17599H41.5085L41.5688 14.9052V14.9052Z" fill="white"/>
</g>
<defs>
<clipPath id="clip0_1263_7556">
<rect width="54.2857" height="20" fill="white" transform="translate(0 0.0105591)"/>
</clipPath>
</defs>
</svg>
